<mxfile host="Electron" agent="Mozilla/5.0 (Windows NT 10.0; Win64; x64) AppleWebKit/537.36 (KHTML, like Gecko) draw.io/26.0.15 Chrome/132.0.6834.196 Electron/34.2.0 Safari/537.36" version="26.0.15">
  <diagram name="Страница — 1" id="YpcRYYn0DYfxFPPNS0pG">
    <mxGraphModel dx="1782" dy="572" grid="1" gridSize="10" guides="1" tooltips="1" connect="1" arrows="1" fold="1" page="1" pageScale="1" pageWidth="827" pageHeight="1169" math="0" shadow="0">
      <root>
        <mxCell id="0" />
        <mxCell id="1" parent="0" />
        <mxCell id="mShIZLgn5OIVJh79OUw0-4" value="" style="rounded=0;whiteSpace=wrap;html=1;" vertex="1" parent="1">
          <mxGeometry x="900" y="12.5" width="840" height="720" as="geometry" />
        </mxCell>
        <mxCell id="mShIZLgn5OIVJh79OUw0-2" value="" style="rounded=0;whiteSpace=wrap;html=1;" vertex="1" parent="1">
          <mxGeometry x="60" y="20" width="840" height="720" as="geometry" />
        </mxCell>
        <mxCell id="mShIZLgn5OIVJh79OUw0-1" value="" style="rounded=0;whiteSpace=wrap;html=1;" vertex="1" parent="1">
          <mxGeometry x="-720" y="30" width="630" height="720" as="geometry" />
        </mxCell>
        <mxCell id="T_CZ678cAcqqbvPWmF4b-27" value="" style="rounded=1;whiteSpace=wrap;html=1;fillColor=none;strokeWidth=1;dashed=1;dashPattern=12 12;arcSize=5;" parent="1" vertex="1">
          <mxGeometry x="655" y="142.5" width="230" height="257.5" as="geometry" />
        </mxCell>
        <mxCell id="T_CZ678cAcqqbvPWmF4b-5" value="Редактирование информации на странице игры (мероприятия)" style="ellipse;whiteSpace=wrap;html=1;fontSize=17;fontStyle=1" parent="1" vertex="1">
          <mxGeometry x="470" y="550" width="200" height="120" as="geometry" />
        </mxCell>
        <mxCell id="T_CZ678cAcqqbvPWmF4b-6" value="Назначение роли работника студии (организатора)" style="ellipse;whiteSpace=wrap;html=1;fontSize=17;fontStyle=1" parent="1" vertex="1">
          <mxGeometry x="510" y="420" width="190" height="100" as="geometry" />
        </mxCell>
        <mxCell id="Nox9GVhglAXxj7asT37l-6" style="rounded=0;orthogonalLoop=1;jettySize=auto;html=1;entryX=0.5;entryY=1;entryDx=0;entryDy=0;" parent="1" target="Nox9GVhglAXxj7asT37l-5" edge="1">
          <mxGeometry relative="1" as="geometry">
            <mxPoint x="-435" y="207.5" as="sourcePoint" />
          </mxGeometry>
        </mxCell>
        <mxCell id="Nox9GVhglAXxj7asT37l-8" style="rounded=0;orthogonalLoop=1;jettySize=auto;html=1;entryX=0;entryY=0.5;entryDx=0;entryDy=0;" parent="1" target="Nox9GVhglAXxj7asT37l-7" edge="1">
          <mxGeometry relative="1" as="geometry">
            <mxPoint x="-400" y="247.5" as="sourcePoint" />
          </mxGeometry>
        </mxCell>
        <mxCell id="wxCVGypFrNnkMV9-Y0Sd-2" style="rounded=0;orthogonalLoop=1;jettySize=auto;html=1;entryX=0;entryY=1;entryDx=0;entryDy=0;" parent="1" target="wxCVGypFrNnkMV9-Y0Sd-1" edge="1">
          <mxGeometry relative="1" as="geometry">
            <mxPoint x="-410" y="217.5" as="sourcePoint" />
          </mxGeometry>
        </mxCell>
        <mxCell id="Nox9GVhglAXxj7asT37l-1" value="Посетитель" style="shape=umlActor;verticalLabelPosition=bottom;verticalAlign=top;html=1;outlineConnect=0;fontSize=14;fontStyle=1" parent="1" vertex="1">
          <mxGeometry x="-450" y="217.5" width="30" height="60" as="geometry" />
        </mxCell>
        <mxCell id="Nox9GVhglAXxj7asT37l-5" value="Просмотр&lt;div&gt;доступных страниц&lt;/div&gt;" style="ellipse;whiteSpace=wrap;html=1;fontSize=19;fontStyle=1" parent="1" vertex="1">
          <mxGeometry x="-520" y="37.5" width="170" height="120" as="geometry" />
        </mxCell>
        <mxCell id="Nox9GVhglAXxj7asT37l-7" value="Возможность&lt;div&gt;зарегистрироваться&lt;/div&gt;" style="ellipse;whiteSpace=wrap;html=1;fontSize=19;fontStyle=1" parent="1" vertex="1">
          <mxGeometry x="-320" y="205" width="210" height="115" as="geometry" />
        </mxCell>
        <mxCell id="Nox9GVhglAXxj7asT37l-11" style="rounded=0;orthogonalLoop=1;jettySize=auto;html=1;endArrow=block;endFill=0;" parent="1" edge="1">
          <mxGeometry relative="1" as="geometry">
            <mxPoint x="-435" y="407.5" as="sourcePoint" />
            <mxPoint x="-435" y="307.5" as="targetPoint" />
          </mxGeometry>
        </mxCell>
        <mxCell id="Nox9GVhglAXxj7asT37l-32" style="rounded=0;orthogonalLoop=1;jettySize=auto;html=1;entryX=0;entryY=0.5;entryDx=0;entryDy=0;" parent="1" target="Nox9GVhglAXxj7asT37l-12" edge="1">
          <mxGeometry relative="1" as="geometry">
            <mxPoint x="-410" y="427.5" as="sourcePoint" />
          </mxGeometry>
        </mxCell>
        <mxCell id="rq-agdoUuukHoPaK4YFO-3" style="rounded=0;orthogonalLoop=1;jettySize=auto;html=1;entryX=0;entryY=0;entryDx=0;entryDy=0;" parent="1" target="Nox9GVhglAXxj7asT37l-17" edge="1">
          <mxGeometry relative="1" as="geometry">
            <mxPoint x="-360" y="530" as="sourcePoint" />
          </mxGeometry>
        </mxCell>
        <mxCell id="rq-agdoUuukHoPaK4YFO-4" style="rounded=0;orthogonalLoop=1;jettySize=auto;html=1;entryX=0;entryY=0.5;entryDx=0;entryDy=0;" parent="1" target="Nox9GVhglAXxj7asT37l-18" edge="1">
          <mxGeometry relative="1" as="geometry">
            <mxPoint x="-400" y="457.5" as="sourcePoint" />
          </mxGeometry>
        </mxCell>
        <mxCell id="Nox9GVhglAXxj7asT37l-9" value="&lt;font style=&quot;font-size: 20px;&quot;&gt;Авторизованный&lt;/font&gt;&lt;div&gt;&lt;font style=&quot;font-size: 20px;&quot;&gt;пользователь&lt;/font&gt;&lt;/div&gt;" style="shape=umlActor;verticalLabelPosition=bottom;verticalAlign=top;html=1;outlineConnect=0;fontSize=14;fontStyle=1" parent="1" vertex="1">
          <mxGeometry x="-450" y="417.5" width="30" height="60" as="geometry" />
        </mxCell>
        <mxCell id="Nox9GVhglAXxj7asT37l-12" value="Настройка профиля&lt;div&gt;пользователя&lt;/div&gt;" style="ellipse;whiteSpace=wrap;html=1;fontSize=19;fontStyle=1" parent="1" vertex="1">
          <mxGeometry x="-340" y="330" width="220" height="100" as="geometry" />
        </mxCell>
        <mxCell id="Nox9GVhglAXxj7asT37l-13" value="Подача жалобы&lt;div&gt;на контент&lt;/div&gt;" style="ellipse;whiteSpace=wrap;html=1;fontSize=19;fontStyle=1" parent="1" vertex="1">
          <mxGeometry x="-710" y="287.5" width="170" height="85" as="geometry" />
        </mxCell>
        <mxCell id="Nox9GVhglAXxj7asT37l-14" value="Обращение к администрации портала" style="ellipse;whiteSpace=wrap;html=1;fontSize=19;fontStyle=1" parent="1" vertex="1">
          <mxGeometry x="-710" y="437.5" width="170" height="85" as="geometry" />
        </mxCell>
        <mxCell id="Nox9GVhglAXxj7asT37l-15" value="Создание страницы студии" style="ellipse;whiteSpace=wrap;html=1;fontSize=19;fontStyle=1" parent="1" vertex="1">
          <mxGeometry x="-640" y="647.5" width="190" height="85" as="geometry" />
        </mxCell>
        <mxCell id="Nox9GVhglAXxj7asT37l-17" value="Добавление реакции &lt;br&gt;на комментарий (обсуждении)" style="ellipse;whiteSpace=wrap;html=1;fontSize=19;fontStyle=1" parent="1" vertex="1">
          <mxGeometry x="-340" y="537.5" width="240" height="110" as="geometry" />
        </mxCell>
        <mxCell id="Nox9GVhglAXxj7asT37l-18" value="Написание комментария в обсуждении" style="ellipse;whiteSpace=wrap;html=1;fontSize=19;fontStyle=1" parent="1" vertex="1">
          <mxGeometry x="-320" y="437.5" width="180" height="85" as="geometry" />
        </mxCell>
        <mxCell id="Nox9GVhglAXxj7asT37l-19" value="Создание страницы организатора" style="ellipse;whiteSpace=wrap;html=1;fontSize=19;fontStyle=1" parent="1" vertex="1">
          <mxGeometry x="-710" y="562.5" width="170" height="85" as="geometry" />
        </mxCell>
        <mxCell id="jyXeXl46rUH5Mm83_vD5-4" style="edgeStyle=orthogonalEdgeStyle;rounded=0;orthogonalLoop=1;jettySize=auto;html=1;endArrow=block;endFill=0;" parent="1" edge="1">
          <mxGeometry relative="1" as="geometry">
            <mxPoint x="175" y="275" as="sourcePoint" />
            <mxPoint x="175" y="175" as="targetPoint" />
          </mxGeometry>
        </mxCell>
        <mxCell id="wxCVGypFrNnkMV9-Y0Sd-13" style="rounded=0;orthogonalLoop=1;jettySize=auto;html=1;entryX=0;entryY=1;entryDx=0;entryDy=0;" parent="1" target="Nox9GVhglAXxj7asT37l-39" edge="1">
          <mxGeometry relative="1" as="geometry">
            <mxPoint x="200" y="295" as="sourcePoint" />
          </mxGeometry>
        </mxCell>
        <mxCell id="wxCVGypFrNnkMV9-Y0Sd-14" style="rounded=0;orthogonalLoop=1;jettySize=auto;html=1;entryX=0;entryY=0.5;entryDx=0;entryDy=0;" parent="1" target="Nox9GVhglAXxj7asT37l-41" edge="1">
          <mxGeometry relative="1" as="geometry">
            <mxPoint x="200" y="325" as="sourcePoint" />
          </mxGeometry>
        </mxCell>
        <mxCell id="Nox9GVhglAXxj7asT37l-34" value="&lt;div&gt;&lt;font style=&quot;font-size: 17px;&quot;&gt;Работник студии&lt;/font&gt;&lt;/div&gt;&lt;div&gt;&lt;font style=&quot;font-size: 17px;&quot;&gt;&amp;nbsp;(&lt;span style=&quot;background-color: transparent; color: light-dark(rgb(0, 0, 0), rgb(255, 255, 255));&quot;&gt;органиазтора&lt;/span&gt;&lt;span style=&quot;background-color: transparent; color: light-dark(rgb(0, 0, 0), rgb(255, 255, 255));&quot;&gt;)&lt;/span&gt;&lt;/font&gt;&lt;/div&gt;" style="shape=umlActor;verticalLabelPosition=bottom;verticalAlign=top;html=1;outlineConnect=0;fontSize=14;fontStyle=1" parent="1" vertex="1">
          <mxGeometry x="160" y="285" width="30" height="60" as="geometry" />
        </mxCell>
        <mxCell id="Nox9GVhglAXxj7asT37l-39" value="Модерация обсуждений на странице студии (организатора)" style="ellipse;whiteSpace=wrap;html=1;fontSize=17;fontStyle=1" parent="1" vertex="1">
          <mxGeometry x="240" y="120" width="260" height="130" as="geometry" />
        </mxCell>
        <mxCell id="Nox9GVhglAXxj7asT37l-41" value="Модерация &lt;br&gt;обсуждений на странице игр (мероприятий)" style="ellipse;whiteSpace=wrap;html=1;fontSize=17;fontStyle=1" parent="1" vertex="1">
          <mxGeometry x="270" y="270" width="220" height="120" as="geometry" />
        </mxCell>
        <mxCell id="T_CZ678cAcqqbvPWmF4b-22" style="rounded=0;orthogonalLoop=1;jettySize=auto;html=1;entryX=1;entryY=0.5;entryDx=0;entryDy=0;dashed=1;dashPattern=8 8;exitX=-0.016;exitY=0.798;exitDx=0;exitDy=0;exitPerimeter=0;" parent="1" source="T_CZ678cAcqqbvPWmF4b-27" target="Nox9GVhglAXxj7asT37l-41" edge="1">
          <mxGeometry relative="1" as="geometry" />
        </mxCell>
        <mxCell id="T_CZ678cAcqqbvPWmF4b-24" value="&lt;font style=&quot;font-size: 17px;&quot;&gt;&amp;lt;&amp;lt;Дополняет&amp;gt;&amp;gt;&lt;/font&gt;" style="edgeLabel;html=1;align=center;verticalAlign=middle;resizable=0;points=[];fontStyle=1;fontSize=14;" parent="T_CZ678cAcqqbvPWmF4b-22" vertex="1" connectable="0">
          <mxGeometry x="0.4031" relative="1" as="geometry">
            <mxPoint x="35" as="offset" />
          </mxGeometry>
        </mxCell>
        <mxCell id="Nox9GVhglAXxj7asT37l-42" value="Ограничение прав пользователя на публикацию комментариев" style="ellipse;whiteSpace=wrap;html=1;fontSize=17;fontStyle=1" parent="1" vertex="1">
          <mxGeometry x="660" y="282.5" width="220" height="107.5" as="geometry" />
        </mxCell>
        <mxCell id="T_CZ678cAcqqbvPWmF4b-21" style="rounded=0;orthogonalLoop=1;jettySize=auto;html=1;entryX=1;entryY=0.5;entryDx=0;entryDy=0;dashed=1;dashPattern=8 8;exitX=0.001;exitY=0.239;exitDx=0;exitDy=0;exitPerimeter=0;fontSize=12;" parent="1" source="T_CZ678cAcqqbvPWmF4b-27" target="Nox9GVhglAXxj7asT37l-39" edge="1">
          <mxGeometry relative="1" as="geometry" />
        </mxCell>
        <mxCell id="T_CZ678cAcqqbvPWmF4b-23" value="&lt;font style=&quot;font-size: 17px;&quot;&gt;&amp;lt;&amp;lt; Дополняет&amp;gt;&amp;gt;&lt;/font&gt;" style="edgeLabel;html=1;align=center;verticalAlign=middle;resizable=0;points=[];fontStyle=1;fontSize=14;" parent="T_CZ678cAcqqbvPWmF4b-21" vertex="1" connectable="0">
          <mxGeometry x="0.1115" y="-1" relative="1" as="geometry">
            <mxPoint x="13" y="1" as="offset" />
          </mxGeometry>
        </mxCell>
        <mxCell id="Nox9GVhglAXxj7asT37l-43" value="Ограничение прав пользователя на создание обсуждений" style="ellipse;whiteSpace=wrap;html=1;fontSize=17;fontStyle=1" parent="1" vertex="1">
          <mxGeometry x="660" y="157.5" width="210" height="112.5" as="geometry" />
        </mxCell>
        <mxCell id="jyXeXl46rUH5Mm83_vD5-2" value="&lt;font style=&quot;font-size: 17px;&quot;&gt;Авторизованный&lt;/font&gt;&lt;div&gt;&lt;font style=&quot;font-size: 17px;&quot;&gt;пользователь&lt;/font&gt;&lt;/div&gt;" style="shape=umlActor;verticalLabelPosition=bottom;verticalAlign=top;html=1;outlineConnect=0;fontSize=14;fontStyle=1" parent="1" vertex="1">
          <mxGeometry x="160" y="65" width="30" height="60" as="geometry" />
        </mxCell>
        <mxCell id="wxCVGypFrNnkMV9-Y0Sd-1" value="Прохождение аутентификации" style="ellipse;whiteSpace=wrap;html=1;fontSize=19;fontStyle=1" parent="1" vertex="1">
          <mxGeometry x="-320" y="97.5" width="190" height="85" as="geometry" />
        </mxCell>
        <mxCell id="wxCVGypFrNnkMV9-Y0Sd-3" value="" style="rounded=0;orthogonalLoop=1;jettySize=auto;html=1;entryX=0.319;entryY=0.046;entryDx=0;entryDy=0;entryPerimeter=0;" parent="1" target="Nox9GVhglAXxj7asT37l-16" edge="1">
          <mxGeometry relative="1" as="geometry">
            <mxPoint x="-410" y="540" as="sourcePoint" />
            <mxPoint x="-420" y="830.5" as="targetPoint" />
          </mxGeometry>
        </mxCell>
        <mxCell id="Nox9GVhglAXxj7asT37l-16" value="Создание темы обсуждения" style="ellipse;whiteSpace=wrap;html=1;fontSize=19;fontStyle=1" parent="1" vertex="1">
          <mxGeometry x="-430" y="650" width="190" height="85" as="geometry" />
        </mxCell>
        <mxCell id="wxCVGypFrNnkMV9-Y0Sd-5" style="rounded=0;orthogonalLoop=1;jettySize=auto;html=1;entryX=0.75;entryY=0.061;entryDx=0;entryDy=0;entryPerimeter=0;" parent="1" target="Nox9GVhglAXxj7asT37l-15" edge="1">
          <mxGeometry relative="1" as="geometry">
            <mxPoint x="-470" y="550" as="sourcePoint" />
          </mxGeometry>
        </mxCell>
        <mxCell id="wxCVGypFrNnkMV9-Y0Sd-6" style="rounded=0;orthogonalLoop=1;jettySize=auto;html=1;entryX=0.935;entryY=0.22;entryDx=0;entryDy=0;entryPerimeter=0;" parent="1" target="Nox9GVhglAXxj7asT37l-19" edge="1">
          <mxGeometry relative="1" as="geometry">
            <mxPoint x="-510" y="540" as="sourcePoint" />
          </mxGeometry>
        </mxCell>
        <mxCell id="wxCVGypFrNnkMV9-Y0Sd-7" style="rounded=0;orthogonalLoop=1;jettySize=auto;html=1;entryX=0.5;entryY=0;entryDx=0;entryDy=0;exitX=0.5;exitY=1;exitDx=0;exitDy=0;dashed=1;dashPattern=8 8;" parent="1" source="Nox9GVhglAXxj7asT37l-13" target="Nox9GVhglAXxj7asT37l-14" edge="1">
          <mxGeometry relative="1" as="geometry">
            <mxPoint x="-470" y="457.5" as="sourcePoint" />
          </mxGeometry>
        </mxCell>
        <mxCell id="wxCVGypFrNnkMV9-Y0Sd-9" value="&lt;b&gt;&lt;font style=&quot;font-size: 18px;&quot;&gt;&amp;lt;&amp;lt;Дополняет&amp;gt;&amp;gt;&lt;/font&gt;&lt;/b&gt;" style="edgeLabel;html=1;align=center;verticalAlign=middle;resizable=0;points=[];fontSize=14;" parent="wxCVGypFrNnkMV9-Y0Sd-7" vertex="1" connectable="0">
          <mxGeometry x="-0.3093" y="1" relative="1" as="geometry">
            <mxPoint x="-1" y="-2" as="offset" />
          </mxGeometry>
        </mxCell>
        <mxCell id="wxCVGypFrNnkMV9-Y0Sd-8" style="rounded=0;orthogonalLoop=1;jettySize=auto;html=1;entryX=1;entryY=0.5;entryDx=0;entryDy=0;" parent="1" target="Nox9GVhglAXxj7asT37l-14" edge="1">
          <mxGeometry relative="1" as="geometry">
            <mxPoint x="-480" y="457.5" as="sourcePoint" />
          </mxGeometry>
        </mxCell>
        <mxCell id="T_CZ678cAcqqbvPWmF4b-2" style="rounded=0;orthogonalLoop=1;jettySize=auto;html=1;endArrow=block;endFill=0;" parent="1" edge="1">
          <mxGeometry relative="1" as="geometry">
            <mxPoint x="175" y="495" as="sourcePoint" />
            <mxPoint x="175" y="395" as="targetPoint" />
          </mxGeometry>
        </mxCell>
        <mxCell id="T_CZ678cAcqqbvPWmF4b-7" style="rounded=0;orthogonalLoop=1;jettySize=auto;html=1;entryX=0;entryY=0.5;entryDx=0;entryDy=0;" parent="1" target="T_CZ678cAcqqbvPWmF4b-3" edge="1">
          <mxGeometry relative="1" as="geometry">
            <mxPoint x="200" y="512.5" as="sourcePoint" />
          </mxGeometry>
        </mxCell>
        <mxCell id="T_CZ678cAcqqbvPWmF4b-8" style="rounded=0;orthogonalLoop=1;jettySize=auto;html=1;entryX=0;entryY=0.5;entryDx=0;entryDy=0;" parent="1" target="T_CZ678cAcqqbvPWmF4b-4" edge="1">
          <mxGeometry relative="1" as="geometry">
            <mxPoint x="200" y="542.5" as="sourcePoint" />
            <Array as="points">
              <mxPoint x="260" y="560" />
            </Array>
          </mxGeometry>
        </mxCell>
        <mxCell id="T_CZ678cAcqqbvPWmF4b-1" value="&lt;div&gt;&lt;font style=&quot;font-size: 17px;&quot;&gt;Владелец страницы&lt;/font&gt;&lt;/div&gt;&lt;div&gt;&lt;font style=&quot;font-size: 17px;&quot;&gt;студии (организатора)&amp;nbsp;&lt;/font&gt;&lt;/div&gt;" style="shape=umlActor;verticalLabelPosition=bottom;verticalAlign=top;html=1;outlineConnect=0;fontSize=14;fontStyle=1" parent="1" vertex="1">
          <mxGeometry x="160" y="502.5" width="30" height="60" as="geometry" />
        </mxCell>
        <mxCell id="T_CZ678cAcqqbvPWmF4b-3" value="Редактирование информации на странице студии (организатора)" style="ellipse;whiteSpace=wrap;html=1;fontSize=17;fontStyle=1" parent="1" vertex="1">
          <mxGeometry x="255" y="400" width="230" height="105" as="geometry" />
        </mxCell>
        <mxCell id="T_CZ678cAcqqbvPWmF4b-4" value="Создание страниц игр (мероприятий)" style="ellipse;whiteSpace=wrap;html=1;fontSize=17;fontStyle=1" parent="1" vertex="1">
          <mxGeometry x="285" y="560" width="170" height="100" as="geometry" />
        </mxCell>
        <mxCell id="T_CZ678cAcqqbvPWmF4b-11" style="edgeStyle=orthogonalEdgeStyle;rounded=0;orthogonalLoop=1;jettySize=auto;html=1;endArrow=block;endFill=0;" parent="1" edge="1">
          <mxGeometry relative="1" as="geometry">
            <mxPoint x="1362" y="298.75" as="sourcePoint" />
            <mxPoint x="1362" y="198.75" as="targetPoint" />
          </mxGeometry>
        </mxCell>
        <mxCell id="T_CZ678cAcqqbvPWmF4b-33" style="rounded=0;orthogonalLoop=1;jettySize=auto;html=1;entryX=1;entryY=0.5;entryDx=0;entryDy=0;" parent="1" target="T_CZ678cAcqqbvPWmF4b-20" edge="1">
          <mxGeometry relative="1" as="geometry">
            <mxPoint x="1339" y="308.75" as="sourcePoint" />
          </mxGeometry>
        </mxCell>
        <mxCell id="T_CZ678cAcqqbvPWmF4b-34" style="rounded=0;orthogonalLoop=1;jettySize=auto;html=1;entryX=1;entryY=0.5;entryDx=0;entryDy=0;" parent="1" target="T_CZ678cAcqqbvPWmF4b-19" edge="1">
          <mxGeometry relative="1" as="geometry">
            <mxPoint x="1339" y="328.75" as="sourcePoint" />
          </mxGeometry>
        </mxCell>
        <mxCell id="T_CZ678cAcqqbvPWmF4b-35" style="rounded=0;orthogonalLoop=1;jettySize=auto;html=1;entryX=0;entryY=0.5;entryDx=0;entryDy=0;" parent="1" target="T_CZ678cAcqqbvPWmF4b-14" edge="1">
          <mxGeometry relative="1" as="geometry">
            <mxPoint x="1389" y="308.75" as="sourcePoint" />
          </mxGeometry>
        </mxCell>
        <mxCell id="T_CZ678cAcqqbvPWmF4b-36" style="rounded=0;orthogonalLoop=1;jettySize=auto;html=1;entryX=0;entryY=0.5;entryDx=0;entryDy=0;" parent="1" target="T_CZ678cAcqqbvPWmF4b-15" edge="1">
          <mxGeometry relative="1" as="geometry">
            <mxPoint x="1389" y="328.75" as="sourcePoint" />
          </mxGeometry>
        </mxCell>
        <mxCell id="8HalHW5koF5oAW2OHnk1-1" style="rounded=0;orthogonalLoop=1;jettySize=auto;html=1;entryX=1;entryY=0;entryDx=0;entryDy=0;" parent="1" target="T_CZ678cAcqqbvPWmF4b-17" edge="1">
          <mxGeometry relative="1" as="geometry">
            <mxPoint x="1310" y="388.75" as="sourcePoint" />
          </mxGeometry>
        </mxCell>
        <mxCell id="T_CZ678cAcqqbvPWmF4b-12" value="&lt;div&gt;&lt;font style=&quot;font-size: 17px;&quot;&gt;Модератор&lt;/font&gt;&lt;/div&gt;" style="shape=umlActor;verticalLabelPosition=bottom;verticalAlign=top;html=1;outlineConnect=0;fontSize=14;fontStyle=1" parent="1" vertex="1">
          <mxGeometry x="1347" y="308.75" width="30" height="60" as="geometry" />
        </mxCell>
        <mxCell id="T_CZ678cAcqqbvPWmF4b-13" value="&lt;font style=&quot;font-size: 17px;&quot;&gt;Авторизованный&lt;/font&gt;&lt;div&gt;&lt;font style=&quot;font-size: 17px;&quot;&gt;пользователь&lt;/font&gt;&lt;/div&gt;" style="shape=umlActor;verticalLabelPosition=bottom;verticalAlign=top;html=1;outlineConnect=0;fontSize=14;fontStyle=1" parent="1" vertex="1">
          <mxGeometry x="1347" y="88.75" width="30" height="60" as="geometry" />
        </mxCell>
        <mxCell id="T_CZ678cAcqqbvPWmF4b-14" value="Ограничение прав пользователя на публикацию комментариев" style="ellipse;whiteSpace=wrap;html=1;fontSize=17;fontStyle=1" parent="1" vertex="1">
          <mxGeometry x="1470" y="130" width="217.5" height="108.75" as="geometry" />
        </mxCell>
        <mxCell id="T_CZ678cAcqqbvPWmF4b-15" value="Ограничение прав пользователя на создание обсуждений" style="ellipse;whiteSpace=wrap;html=1;fontSize=17;fontStyle=1" parent="1" vertex="1">
          <mxGeometry x="1470" y="263.75" width="220.27" height="116.25" as="geometry" />
        </mxCell>
        <mxCell id="T_CZ678cAcqqbvPWmF4b-16" value="Блокировка пользователя" style="ellipse;whiteSpace=wrap;html=1;fontSize=17;fontStyle=1" parent="1" vertex="1">
          <mxGeometry x="1470" y="391.25" width="170" height="98.75" as="geometry" />
        </mxCell>
        <mxCell id="T_CZ678cAcqqbvPWmF4b-17" value="Блокировка студии или организатора&amp;nbsp;" style="ellipse;whiteSpace=wrap;html=1;fontSize=17;fontStyle=1" parent="1" vertex="1">
          <mxGeometry x="1050" y="500" width="180" height="85" as="geometry" />
        </mxCell>
        <mxCell id="T_CZ678cAcqqbvPWmF4b-29" style="rounded=0;orthogonalLoop=1;jettySize=auto;html=1;entryX=0.5;entryY=0;entryDx=0;entryDy=0;dashed=1;dashPattern=12 12;" parent="1" source="T_CZ678cAcqqbvPWmF4b-18" target="T_CZ678cAcqqbvPWmF4b-17" edge="1">
          <mxGeometry relative="1" as="geometry" />
        </mxCell>
        <mxCell id="T_CZ678cAcqqbvPWmF4b-30" value="&lt;font style=&quot;font-size: 17px;&quot;&gt;&amp;lt;&amp;lt;Дополняет&amp;gt;&amp;gt;&lt;/font&gt;" style="edgeLabel;html=1;align=center;verticalAlign=middle;resizable=0;points=[];fontStyle=1;fontSize=14;" parent="T_CZ678cAcqqbvPWmF4b-29" vertex="1" connectable="0">
          <mxGeometry x="-0.318" relative="1" as="geometry">
            <mxPoint y="4" as="offset" />
          </mxGeometry>
        </mxCell>
        <mxCell id="T_CZ678cAcqqbvPWmF4b-18" value="Блокировка игры или мероприятия" style="ellipse;whiteSpace=wrap;html=1;fontSize=17;fontStyle=1" parent="1" vertex="1">
          <mxGeometry x="1055" y="363.75" width="170" height="85" as="geometry" />
        </mxCell>
        <mxCell id="T_CZ678cAcqqbvPWmF4b-19" value="Обработка обращений и жалоб пользователей" style="ellipse;whiteSpace=wrap;html=1;fontSize=17;fontStyle=1" parent="1" vertex="1">
          <mxGeometry x="1050" y="262.75" width="180" height="85" as="geometry" />
        </mxCell>
        <mxCell id="T_CZ678cAcqqbvPWmF4b-20" value="Скрытие темы обсуджения или комментария к ней" style="ellipse;whiteSpace=wrap;html=1;fontSize=17;fontStyle=1" parent="1" vertex="1">
          <mxGeometry x="1030" y="137.75" width="200" height="100" as="geometry" />
        </mxCell>
        <mxCell id="T_CZ678cAcqqbvPWmF4b-9" style="rounded=0;orthogonalLoop=1;jettySize=auto;html=1;entryX=0;entryY=0.5;entryDx=0;entryDy=0;" parent="1" target="T_CZ678cAcqqbvPWmF4b-6" edge="1">
          <mxGeometry relative="1" as="geometry">
            <mxPoint x="200" y="525" as="sourcePoint" />
            <Array as="points">
              <mxPoint x="440" y="505" />
            </Array>
          </mxGeometry>
        </mxCell>
        <mxCell id="T_CZ678cAcqqbvPWmF4b-10" style="rounded=0;orthogonalLoop=1;jettySize=auto;html=1;entryX=0;entryY=0.5;entryDx=0;entryDy=0;" parent="1" target="T_CZ678cAcqqbvPWmF4b-5" edge="1">
          <mxGeometry relative="1" as="geometry">
            <mxPoint x="200" y="535" as="sourcePoint" />
            <Array as="points">
              <mxPoint x="440" y="565" />
            </Array>
          </mxGeometry>
        </mxCell>
        <mxCell id="T_CZ678cAcqqbvPWmF4b-37" style="rounded=0;orthogonalLoop=1;jettySize=auto;html=1;entryX=0.5;entryY=0;entryDx=0;entryDy=0;" parent="1" target="T_CZ678cAcqqbvPWmF4b-16" edge="1">
          <mxGeometry relative="1" as="geometry">
            <mxPoint x="1389" y="358.75" as="sourcePoint" />
          </mxGeometry>
        </mxCell>
        <mxCell id="T_CZ678cAcqqbvPWmF4b-32" style="rounded=0;orthogonalLoop=1;jettySize=auto;html=1;entryX=0.5;entryY=0;entryDx=0;entryDy=0;" parent="1" target="T_CZ678cAcqqbvPWmF4b-18" edge="1">
          <mxGeometry relative="1" as="geometry">
            <mxPoint x="1329" y="358.75" as="sourcePoint" />
          </mxGeometry>
        </mxCell>
        <mxCell id="8HalHW5koF5oAW2OHnk1-5" style="rounded=0;orthogonalLoop=1;jettySize=auto;html=1;entryX=0;entryY=0.5;entryDx=0;entryDy=0;" parent="1" target="8HalHW5koF5oAW2OHnk1-4" edge="1">
          <mxGeometry relative="1" as="geometry">
            <mxPoint x="1380" y="541.75" as="sourcePoint" />
          </mxGeometry>
        </mxCell>
        <mxCell id="8HalHW5koF5oAW2OHnk1-7" style="rounded=0;orthogonalLoop=1;jettySize=auto;html=1;endArrow=block;endFill=0;" parent="1" edge="1">
          <mxGeometry relative="1" as="geometry">
            <mxPoint x="1362" y="395.75" as="targetPoint" />
            <mxPoint x="1362" y="505.75" as="sourcePoint" />
          </mxGeometry>
        </mxCell>
        <mxCell id="8HalHW5koF5oAW2OHnk1-2" value="&lt;font style=&quot;font-size: 17px;&quot;&gt;Администратор&lt;/font&gt;" style="shape=umlActor;verticalLabelPosition=bottom;verticalAlign=top;html=1;outlineConnect=0;fontSize=14;fontStyle=1" parent="1" vertex="1">
          <mxGeometry x="1347" y="511.25" width="30" height="60" as="geometry" />
        </mxCell>
        <mxCell id="8HalHW5koF5oAW2OHnk1-4" value="Назначение или снятие прав модератора" style="ellipse;whiteSpace=wrap;html=1;fontSize=17;fontStyle=1" parent="1" vertex="1">
          <mxGeometry x="1470" y="498.75" width="180" height="85" as="geometry" />
        </mxCell>
      </root>
    </mxGraphModel>
  </diagram>
</mxfile>
